<svg width="64" height="64" viewBox="0 0 64 64" fill="none" xmlns="http://www.w3.org/2000/svg">
  <rect width="64" height="64" rx="16" fill="#F8FAFC"/>
  <rect x="12" y="38" width="40" height="10" rx="5" fill="#0F172A"/>
  <rect x="18" y="42" width="28" height="3" rx="1.5" fill="#475569"/>
  <path d="M24 38V28" stroke="#16A34A" stroke-width="4" stroke-linecap="round"/>
  <path d="M40 38V26" stroke="#16A34A" stroke-width="4" stroke-linecap="round"/>
  <path d="M24 24C24 19.5817 27.5817 16 32 16H34V18C34 24.6274 28.6274 30 22 30H20V28C20 25.7909 21.7909 24 24 24Z" fill="#22C55E"/>
  <path d="M40 22C40 18.6863 37.3137 16 34 16H30V18C30 23.5228 34.4772 28 40 28H44V26C44 23.7909 42.2091 22 40 22Z" fill="#16A34A"/>
</svg>
